<?xml version="1.0" encoding="UTF-8"?>
<svg width="36px" height="36px" viewBox="0 0 36 36" version="1.1" xmlns="http://www.w3.org/2000/svg" xmlns:xlink="http://www.w3.org/1999/xlink">
    <!-- Generator: Sketch 60 (88103) - https://sketch.com -->
    <title>编组 7</title>
    <desc>Created with Sketch.</desc>
    <g id="页面-1" stroke="none" stroke-width="1" fill="none" fill-rule="evenodd">
        <g id="交易页白天模式" transform="translate(-393.000000, -876.000000)">
            <g id="编组-7" transform="translate(393.000000, 876.000000)">
                <g id="编组-8备份" fill="#8C8C8B">
                    <circle id="椭圆形" cx="18" cy="18" r="18"></circle>
                </g>
                <g id="限时-倒计时备份" transform="translate(9.000000, 8.000000)" fill="#FFFFFF" fill-rule="nonzero">
                    <path d="M6.09821878,0.882910329 C5.45204188,0.339880116 4.63156301,0 3.72441703,0 L3.72441684,0 C1.66765523,0 0.000256744646,1.67877394 0,3.74982388 C0,4.44412736 0.199824358,5.08606679 0.526762991,5.64364224 L0.526763226,5.64364224 C1.83774286,3.504036 3.78797322,1.83743877 6.09774681,0.882909945 L6.09821878,0.882910329 Z M9.00024302,1.87489006 C4.02921243,1.87489006 1.93923576e-07,5.9321248 1.93923576e-07,10.9381808 C1.93923576e-07,15.9427851 4.02921243,20 9.00024302,20 C13.9703059,20 17.9995181,15.9427851 17.9995181,10.9376837 C17.9995181,5.93210492 13.9703059,1.87489006 9.00024302,1.87489006 L9.00024302,1.87489006 Z M9.00024302,18.1251079 C5.05771173,18.1251079 1.86197162,14.9071578 1.86197162,10.9377036 C1.86197162,6.96824936 5.05771173,3.74982189 9.00024302,3.74982189 C12.9418263,3.74982189 16.1380404,6.96824936 16.1380404,10.9377036 C16.1380404,14.9071578 12.9418263,18.1251079 9.00024302,18.1251079 Z M17.464087,5.62524268 C17.7963245,5.06910928 18,4.42959405 18,3.73771478 C18,1.67371871 16.3027046,2.18755304e-05 14.2091258,2.18755304e-05 C13.2846417,2.18755304e-05 12.4501979,0.338931514 11.7924668,0.880022759 L11.7924668,0.880022506 C14.1316278,1.8214459 16.1162047,3.48199753 17.4636006,5.62524268 L17.464087,5.62524268 Z M12.4136038,10.6249829 L9.93098186,10.6249829 L9.93098186,6.25019502 L9.93098186,6.25019504 C9.93098186,5.90476649 9.65288988,5.62473981 9.30984349,5.62473981 L8.68966889,5.62473981 L8.68966887,5.62473981 C8.34662444,5.62473981 8.06853049,5.9047645 8.06853049,6.25019504 L8.06853049,11.8749309 C8.06853049,12.2201426 8.34683971,12.5003861 8.68966887,12.5003861 L12.4136117,12.5003861 L12.4136117,12.5003861 C12.7566561,12.5003861 13.0347501,12.2203614 13.0347501,11.8749309 C13.0347501,11.8749309 13.0347501,11.8749309 13.0347501,11.8749309 L13.0347501,11.2499609 L13.0347501,11.2499629 C13.0344854,10.9047232 12.7564705,10.6249929 12.4136137,10.6249909 L12.4136038,10.6249829 Z" id="形状"></path>
                </g>
            </g>
        </g>
    </g>
</svg>